<svg width="20" height="20" viewBox="0 0 20 20" fill="none" xmlns="http://www.w3.org/2000/svg">
<path fill-rule="evenodd" clip-rule="evenodd" d="M16.0398 3.03592C16.2278 2.91983 16.4542 2.88315 16.6692 2.93394C16.8843 2.98473 17.0703 3.11883 17.1865 3.30675L19.7573 7.46925C19.8437 7.60942 19.8866 7.77202 19.8806 7.93654C19.8746 8.10106 19.8201 8.26012 19.7238 8.39366C19.6275 8.5272 19.4938 8.62923 19.3396 8.68688C19.1854 8.74453 19.0176 8.75522 18.8573 8.71759L16.349 8.12425L15.5565 11.2868L15.554 11.2951C15.1245 12.9535 14.1564 14.4224 12.8016 15.471C11.4468 16.5195 9.78216 17.0885 8.069 17.0884H1.15983C0.883564 17.0884 0.618612 16.9787 0.423261 16.7833C0.227911 16.588 0.118164 16.323 0.118164 16.0468C0.118164 15.7705 0.227911 15.5055 0.423261 15.3102C0.618612 15.1148 0.883564 15.0051 1.15983 15.0051H8.069C9.31984 15.0048 10.5352 14.5895 11.5246 13.8241C12.5139 13.0587 13.2212 11.9866 13.5357 10.7759L14.3207 7.64509L12.124 7.12509C11.9636 7.08713 11.8181 7.00246 11.7058 6.8818C11.5936 6.76114 11.5196 6.6099 11.4933 6.44721C11.467 6.28452 11.4895 6.11768 11.558 5.96778C11.6265 5.81788 11.7379 5.69167 11.8782 5.60509L16.0398 3.03592Z" fill="#0D3B42"/>
</svg>
