<svg width="20" height="20" viewBox="0 0 20 20" fill="none" xmlns="http://www.w3.org/2000/svg">
<g clip-path="url(#clip0_415_115)">
<path d="M14.7501 14.8667C14.6876 14.7145 14.5814 14.5842 14.445 14.4923C14.3085 14.4003 14.1479 14.3508 13.9834 14.35H11.4834C11.456 14.3535 11.4282 14.3515 11.4016 14.3441C11.375 14.3368 11.3501 14.3242 11.3284 14.3072C11.3067 14.2901 11.2886 14.2689 11.2751 14.2448C11.2617 14.2207 11.2532 14.1941 11.2501 14.1667V1.25C11.2501 0.918479 11.1184 0.600537 10.884 0.366117C10.6496 0.131696 10.3316 0 10.0001 0C9.66857 0 9.35062 0.131696 9.1162 0.366117C8.88178 0.600537 8.75009 0.918479 8.75009 1.25V14.1667C8.75009 14.194 8.7447 14.2211 8.73423 14.2464C8.72376 14.2717 8.70841 14.2946 8.68907 14.314C8.66972 14.3333 8.64676 14.3487 8.62148 14.3591C8.5962 14.3696 8.56911 14.375 8.54175 14.375H6.04175C5.87694 14.3757 5.71604 14.4252 5.57939 14.5174C5.44273 14.6095 5.33647 14.7401 5.27403 14.8926C5.21159 15.0451 5.19578 15.2128 5.22861 15.3743C5.26143 15.5358 5.3414 15.6839 5.45842 15.8L9.43342 19.7833C9.51089 19.8614 9.60306 19.9234 9.70461 19.9657C9.80616 20.008 9.91508 20.0298 10.0251 20.0298C10.1351 20.0298 10.244 20.008 10.3456 19.9657C10.4471 19.9234 10.5393 19.8614 10.6168 19.7833L14.5918 15.8C14.7097 15.6789 14.788 15.5247 14.8163 15.358C14.8446 15.1913 14.8215 15.0199 14.7501 14.8667Z" fill="#0D3B42"/>
</g>
<defs>
<clipPath id="clip0_415_115">
<rect width="20" height="20" fill="white"/>
</clipPath>
</defs>
</svg>
