<svg width="20" height="20" viewBox="0 0 20 20" fill="none" xmlns="http://www.w3.org/2000/svg">
<g clip-path="url(#clip0_415_118)">
<path d="M10 0C8.02219 0 6.08879 0.58649 4.4443 1.6853C2.79981 2.78412 1.51809 4.3459 0.761209 6.17317C0.00433284 8.00043 -0.193701 10.0111 0.192152 11.9509C0.578004 13.8907 1.53041 15.6725 2.92894 17.0711C4.32746 18.4696 6.10929 19.422 8.0491 19.8079C9.98891 20.1937 11.9996 19.9957 13.8268 19.2388C15.6541 18.4819 17.2159 17.2002 18.3147 15.5557C19.4135 13.9112 20 11.9778 20 10C20 7.34784 18.9464 4.8043 17.0711 2.92893C15.1957 1.05357 12.6522 0 10 0ZM17.8583 7.225C17.8724 7.25498 17.8798 7.2877 17.8798 7.32083C17.8798 7.35397 17.8724 7.38669 17.8583 7.41667C17.8368 7.44229 17.8101 7.46299 17.7799 7.47736C17.7497 7.49174 17.7168 7.49946 17.6833 7.5H14.45C14.4133 7.50094 14.3771 7.49219 14.3449 7.47463C14.3127 7.45707 14.2857 7.43133 14.2667 7.4C13.8519 6.71957 13.2804 6.14813 12.6 5.73333C12.5698 5.71313 12.5449 5.6859 12.5274 5.65397C12.51 5.62204 12.5006 5.58637 12.5 5.55V2.34167C12.5003 2.30732 12.5088 2.27354 12.5247 2.24311C12.5407 2.21268 12.5636 2.18648 12.5917 2.16667C12.6206 2.15429 12.6518 2.14791 12.6833 2.14791C12.7148 2.14791 12.746 2.15429 12.775 2.16667C13.9434 2.58187 15.0053 3.25085 15.8842 4.12548C16.7632 5.00011 17.4374 6.05867 17.8583 7.225ZM10 13.3333C9.34073 13.3333 8.69627 13.1378 8.1481 12.7716C7.59994 12.4053 7.1727 11.8847 6.92041 11.2756C6.66811 10.6665 6.6021 9.9963 6.73072 9.3497C6.85934 8.7031 7.17681 8.10915 7.64298 7.64298C8.10916 7.1768 8.7031 6.85933 9.3497 6.73072C9.99631 6.6021 10.6665 6.66811 11.2756 6.9204C11.8847 7.17269 12.4053 7.59994 12.7716 8.1481C13.1378 8.69626 13.3333 9.34073 13.3333 10C13.3333 10.8841 12.9821 11.7319 12.357 12.357C11.7319 12.9821 10.8841 13.3333 10 13.3333ZM7.225 2.14167C7.25398 2.12929 7.28516 2.12291 7.31667 2.12291C7.34818 2.12291 7.37936 2.12929 7.40834 2.14167C7.44008 2.16378 7.46532 2.194 7.48144 2.22917C7.49756 2.26434 7.50397 2.30318 7.5 2.34167V5.55C7.49939 5.58637 7.48998 5.62204 7.47256 5.65397C7.45515 5.6859 7.43025 5.71313 7.4 5.73333C6.71957 6.14813 6.14814 6.71957 5.73334 7.4C5.71428 7.43133 5.6873 7.45707 5.65511 7.47463C5.62291 7.49219 5.58666 7.50094 5.55 7.5H2.34167C2.30823 7.49946 2.2753 7.49174 2.24511 7.47736C2.21492 7.46299 2.18817 7.44229 2.16667 7.41667C2.15256 7.38669 2.14524 7.35397 2.14524 7.32083C2.14524 7.2877 2.15256 7.25498 2.16667 7.225C2.58188 6.0566 3.25085 4.99474 4.12549 4.11579C5.00012 3.23683 6.05867 2.56263 7.225 2.14167ZM2.14167 12.775C2.12769 12.7465 2.12042 12.7151 2.12042 12.6833C2.12042 12.6516 2.12769 12.6202 2.14167 12.5917C2.16379 12.5599 2.194 12.5347 2.22917 12.5186C2.26434 12.5024 2.30319 12.496 2.34167 12.5H5.55C5.58637 12.5006 5.62205 12.51 5.65398 12.5274C5.6859 12.5449 5.71314 12.5698 5.73334 12.6C6.14528 13.2827 6.71732 13.8547 7.4 14.2667C7.43025 14.2869 7.45515 14.3141 7.47256 14.346C7.48998 14.378 7.49939 14.4136 7.5 14.45V17.6583C7.49969 17.6927 7.49122 17.7265 7.47528 17.7569C7.45934 17.7873 7.43639 17.8135 7.40834 17.8333C7.3798 17.8473 7.34845 17.8546 7.31667 17.8546C7.28489 17.8546 7.25354 17.8473 7.225 17.8333C6.05661 17.4181 4.99475 16.7491 4.11579 15.8745C3.23684 14.9999 2.56263 13.9413 2.14167 12.775ZM12.775 17.8583C12.7465 17.8723 12.7151 17.8796 12.6833 17.8796C12.6516 17.8796 12.6202 17.8723 12.5917 17.8583C12.5636 17.8385 12.5407 17.8123 12.5247 17.7819C12.5088 17.7515 12.5003 17.7177 12.5 17.6833V14.45C12.5006 14.4136 12.51 14.378 12.5274 14.346C12.5449 14.3141 12.5698 14.2869 12.6 14.2667C13.2827 13.8547 13.8547 13.2827 14.2667 12.6C14.2869 12.5698 14.3141 12.5449 14.346 12.5274C14.378 12.51 14.4136 12.5006 14.45 12.5H17.6583C17.6927 12.5003 17.7265 12.5088 17.7569 12.5247C17.7873 12.5407 17.8135 12.5636 17.8333 12.5917C17.8473 12.6202 17.8546 12.6516 17.8546 12.6833C17.8546 12.7151 17.8473 12.7465 17.8333 12.775C17.4181 13.9434 16.7492 15.0053 15.8745 15.8842C14.9999 16.7632 13.9413 17.4374 12.775 17.8583Z" fill="#0D3B42"/>
</g>
<defs>
<clipPath id="clip0_415_118">
<rect width="20" height="20" fill="white"/>
</clipPath>
</defs>
</svg>
