<svg width="20" height="20" viewBox="0 0 20 20" fill="none" xmlns="http://www.w3.org/2000/svg">
<path d="M2.91652 16.2501C2.91652 16.4711 3.00432 16.6831 3.1606 16.8393C3.31688 16.9956 3.52884 17.0834 3.74985 17.0834H7.08318C7.24771 17.0826 7.4083 17.0331 7.54474 16.9411C7.68117 16.8492 7.78733 16.7189 7.84985 16.5667C7.91367 16.415 7.9311 16.2477 7.89996 16.0861C7.86881 15.9244 7.79048 15.7756 7.67485 15.6584L6.89152 14.8751C6.87159 14.8564 6.8557 14.8338 6.84485 14.8087C6.83399 14.7836 6.82839 14.7566 6.82839 14.7292C6.82839 14.7019 6.83399 14.6749 6.84485 14.6498C6.8557 14.6247 6.87159 14.6021 6.89152 14.5834L14.5832 6.89175C14.6019 6.87182 14.6245 6.85593 14.6496 6.84508C14.6746 6.83422 14.7017 6.82862 14.729 6.82862C14.7564 6.82862 14.7834 6.83422 14.8085 6.84508C14.8336 6.85593 14.8561 6.87182 14.8749 6.89175L15.6582 7.67508C15.7361 7.75232 15.8284 7.81342 15.9299 7.85489C16.0315 7.89636 16.1402 7.91738 16.2499 7.91675C16.4709 7.91675 16.6828 7.82895 16.8391 7.67267C16.9954 7.51639 17.0832 7.30443 17.0832 7.08342V3.75008C17.0832 3.52907 16.9954 3.31711 16.8391 3.16083C16.6828 3.00455 16.4709 2.91675 16.2499 2.91675H12.9165C12.752 2.91757 12.5914 2.96707 12.455 3.05902C12.3185 3.15096 12.2124 3.28123 12.1499 3.43341C12.086 3.58517 12.0686 3.75243 12.0997 3.91409C12.1309 4.07575 12.2092 4.22456 12.3249 4.34175L13.1082 5.12508C13.1281 5.14379 13.144 5.16638 13.1549 5.19146C13.1657 5.21654 13.1713 5.24358 13.1713 5.27091C13.1713 5.29825 13.1657 5.32529 13.1549 5.35037C13.144 5.37545 13.1281 5.39804 13.1082 5.41675L5.41652 13.1084C5.39781 13.1283 5.37522 13.1442 5.35014 13.1551C5.32506 13.1659 5.29802 13.1715 5.27068 13.1715C5.24335 13.1715 5.21631 13.1659 5.19123 13.1551C5.16615 13.1442 5.14356 13.1283 5.12485 13.1084L4.34152 12.3251C4.22496 12.2076 4.07604 12.1274 3.91375 12.0948C3.75146 12.0623 3.58315 12.0788 3.43028 12.1423C3.27741 12.2057 3.14691 12.3133 3.05541 12.4512C2.96391 12.5892 2.91556 12.7512 2.91652 12.9167V16.2501Z" fill="#0D3B42"/>
</svg>
