<svg width="20" height="20" viewBox="0 0 20 20" fill="none" xmlns="http://www.w3.org/2000/svg">
<g clip-path="url(#clip0_415_124)">
<path d="M17.0168 0H2.98345C2.65338 0.00220055 2.33757 0.134867 2.10495 0.36905C1.87233 0.603232 1.74178 0.919918 1.74178 1.25V6.46667C1.73249 9.23534 2.47877 11.9541 3.90022 14.33C5.32168 16.706 7.36444 18.6491 9.80845 19.95C9.86699 19.9828 9.93299 20.0001 10.0001 20.0001C10.0672 20.0001 10.1332 19.9828 10.1918 19.95C12.6358 18.6491 14.6786 16.706 16.1 14.33C17.5215 11.9541 18.2677 9.23534 18.2585 6.46667V1.25C18.2585 0.919918 18.1279 0.603232 17.8953 0.36905C17.6627 0.134867 17.3469 0.00220055 17.0168 0ZM14.9168 6.61667L8.99179 12.2C8.8381 12.3439 8.63565 12.4243 8.42512 12.425C8.31545 12.4256 8.20673 12.4046 8.1052 12.3631C8.00366 12.3217 7.91132 12.2606 7.83345 12.1833L5.83345 10.1833C5.67824 10.0272 5.59112 9.81599 5.59112 9.59583C5.59112 9.37568 5.67824 9.16447 5.83345 9.00833C5.91092 8.93023 6.00309 8.86823 6.10464 8.82592C6.20619 8.78362 6.31511 8.76184 6.42512 8.76184C6.53513 8.76184 6.64405 8.78362 6.7456 8.82592C6.84715 8.86823 6.93932 8.93023 7.01679 9.00833L8.41679 10.425L13.7501 5.425C13.9081 5.27029 14.1212 5.18469 14.3423 5.18704C14.5634 5.18938 14.7746 5.27948 14.9293 5.4375C15.084 5.59552 15.1696 5.80854 15.1672 6.02967C15.1649 6.25081 15.0748 6.46196 14.9168 6.61667Z" fill="#0D3B42"/>
</g>
<defs>
<clipPath id="clip0_415_124">
<rect width="20" height="20" fill="white"/>
</clipPath>
</defs>
</svg>
