<svg width="38" height="38" viewBox="0 0 38 38" fill="none" xmlns="http://www.w3.org/2000/svg">
<g clip-path="url(#clip0_333_815)">
<path d="M19 0C15.2422 0 11.5687 1.11433 8.44417 3.20208C5.31964 5.28982 2.88436 8.25722 1.4463 11.729C0.0082324 15.2008 -0.368031 19.0211 0.365088 22.7067C1.09821 26.3924 2.90778 29.7778 5.56498 32.435C8.22218 35.0922 11.6077 36.9018 15.2933 37.6349C18.9789 38.368 22.7992 37.9918 26.271 36.5537C29.7428 35.1156 32.7102 32.6804 34.7979 29.5558C36.8857 26.4313 38 22.7578 38 19C38 13.9609 35.9982 9.12816 32.435 5.56497C28.8718 2.00178 24.0391 0 19 0ZM3.16668 19H7.61584C7.795 18.2139 8.2355 17.5119 8.86534 17.0086C9.49518 16.5053 10.2771 16.2305 11.0833 16.2292H18.6042C19.2192 16.2286 19.8239 16.3873 20.3594 16.6897C20.8949 16.9921 21.3429 17.428 21.66 17.955L26.41 25.8717C26.8323 26.569 27.0014 27.3906 26.889 28.1981C26.7765 29.0055 26.3893 29.7496 25.7925 30.305L27.1383 32.5533C24.6852 34.0434 21.8703 34.832 19 34.8333C14.8007 34.8333 10.7735 33.1652 7.80415 30.1959C4.83482 27.2265 3.16668 23.1993 3.16668 19Z" fill="white"/>
<path d="M9.896 19.7916C9.9001 20.1053 10.0265 20.405 10.2483 20.6268C10.4702 20.8486 10.7698 20.975 11.0835 20.9791H17.9393L22.341 28.3258C22.4469 28.4997 22.5957 28.6435 22.7731 28.7433C22.9506 28.8431 23.1507 28.8956 23.3543 28.8958C23.5726 28.898 23.7869 28.8376 23.9718 28.7216C24.2277 28.5583 24.4112 28.3032 24.4848 28.0087C24.5585 27.7143 24.5165 27.4028 24.3677 27.1383L19.6177 19.2216C19.5118 19.0477 19.363 18.9039 19.1855 18.8041C19.0081 18.7043 18.8079 18.6518 18.6043 18.6516H11.0835C10.7778 18.6552 10.4849 18.7751 10.2643 18.9868C10.0438 19.1985 9.91207 19.4863 9.896 19.7916Z" fill="white"/>
</g>
<defs>
<clipPath id="clip0_333_815">
<rect width="38" height="38" fill="white"/>
</clipPath>
</defs>
</svg>
