<svg width="68" height="68" viewBox="0 0 68 68" fill="none" xmlns="http://www.w3.org/2000/svg">
<rect width="68" height="68" rx="13.4" fill="#0D3B42"/>
<g clip-path="url(#clip0_415_181)">
<path d="M34 24C32.0222 24 30.0888 24.5865 28.4443 25.6853C26.7998 26.7841 25.5181 28.3459 24.7612 30.1732C24.0043 32.0004 23.8063 34.0111 24.1922 35.9509C24.578 37.8907 25.5304 39.6725 26.9289 41.0711C28.3275 42.4696 30.1093 43.422 32.0491 43.8079C33.9889 44.1937 35.9996 43.9957 37.8268 43.2388C39.6541 42.4819 41.2159 41.2002 42.3147 39.5557C43.4135 37.9112 44 35.9778 44 34C44 31.3478 42.9464 28.8043 41.0711 26.9289C39.1957 25.0536 36.6522 24 34 24ZM34 42.3333C32.3518 42.3333 30.7407 41.8446 29.3703 40.9289C27.9998 40.0132 26.9317 38.7117 26.301 37.189C25.6703 35.6663 25.5053 33.9908 25.8268 32.3742C26.1483 30.7577 26.942 29.2729 28.1074 28.1074C29.2729 26.942 30.7577 26.1483 32.3743 25.8268C33.9908 25.5052 35.6663 25.6703 37.189 26.301C38.7118 26.9317 40.0132 27.9998 40.9289 29.3702C41.8446 30.7407 42.3333 32.3518 42.3333 34C42.3333 36.2101 41.4554 38.3298 39.8926 39.8926C38.3298 41.4554 36.2101 42.3333 34 42.3333Z" fill="white"/>
<path d="M34.0002 27.3333C33.8897 27.3333 33.7837 27.3772 33.7055 27.4553C33.6274 27.5334 33.5835 27.6394 33.5835 27.7499V34.4166C33.5835 34.5271 33.6274 34.6331 33.7055 34.7112C33.7837 34.7894 33.8897 34.8333 34.0002 34.8333H40.2252C40.3382 34.818 40.4423 34.7639 40.5199 34.6803C40.5974 34.5967 40.6435 34.4887 40.6502 34.3749C40.7012 33.4698 40.567 32.5638 40.2559 31.7123C39.9449 30.8608 39.4634 30.0817 38.841 29.4226C38.2185 28.7635 37.4682 28.2383 36.6359 27.879C35.8036 27.5198 34.9067 27.3341 34.0002 27.3333Z" fill="white"/>
</g>
<defs>
<clipPath id="clip0_415_181">
<rect width="20" height="20" fill="white" transform="translate(24 24)"/>
</clipPath>
</defs>
</svg>
