<svg width="68" height="68" viewBox="0 0 68 68" fill="none" xmlns="http://www.w3.org/2000/svg">
<rect width="68" height="68" rx="13.4" fill="#0D3B42"/>
<path fill-rule="evenodd" clip-rule="evenodd" d="M27.7482 24.4058C28.3232 24.4058 28.7899 24.8724 28.7899 25.4474V27.0208C28.7899 27.297 28.6801 27.562 28.4848 27.7573C28.2894 27.9527 28.0245 28.0624 27.7482 28.0624C27.4719 28.0624 27.207 27.9527 27.0116 27.7573C26.8163 27.562 26.7065 27.297 26.7065 27.0208V25.4474C26.7065 24.8724 27.1732 24.4058 27.7482 24.4058ZM33.024 39.1091C33.0872 38.9569 33.194 38.8268 33.3311 38.7352C33.4681 38.6437 33.6292 38.5949 33.794 38.5949H36.0965V37.0266C36.0965 36.7503 36.2063 36.4854 36.4016 36.29C36.597 36.0947 36.8619 35.9849 37.1382 35.9849C37.4145 35.9849 37.6794 36.0947 37.8748 36.29C38.0701 36.4854 38.1799 36.7503 38.1799 37.0266V38.5949H40.4599C40.6247 38.595 40.7857 38.6439 40.9228 38.7354C41.0598 38.827 41.1666 38.9571 41.2296 39.1094C41.2927 39.2616 41.3092 39.4292 41.277 39.5908C41.2449 39.7524 41.1655 39.9009 41.049 40.0174L37.7157 43.3508C37.5595 43.5067 37.3477 43.5943 37.127 43.5943C36.9062 43.5943 36.6944 43.5067 36.5382 43.3508L33.2049 40.0174C33.0883 39.9009 33.0088 39.7524 32.9767 39.5907C32.9445 39.429 32.961 39.2614 33.024 39.1091ZM29.5857 28.7483C29.3595 28.5966 29.083 28.5396 28.8152 28.5894C28.5475 28.6391 28.3099 28.7918 28.1534 29.0146C27.9968 29.2374 27.9337 29.5126 27.9776 29.7814C28.0215 30.0501 28.1689 30.291 28.3882 30.4524C29.0455 30.9182 29.8382 31.154 30.6432 31.1233C30.9193 31.1121 31.1796 30.9917 31.3669 30.7887C31.5542 30.5856 31.6531 30.3164 31.642 30.0403C31.6308 29.7643 31.5104 29.504 31.3073 29.3167C31.1043 29.1294 30.8351 29.0304 30.559 29.0416C30.2111 29.054 29.8689 28.9508 29.5857 28.7483ZM35.1365 31.2774C34.673 31.1476 34.1927 31.0878 33.7115 31.0999C33.5747 31.1034 33.4386 31.0798 33.3109 31.0307C33.1832 30.9815 33.0664 30.9077 32.9673 30.8134C32.8681 30.7191 32.7885 30.6062 32.733 30.4811C32.6774 30.3561 32.6471 30.2213 32.6436 30.0845C32.6402 29.9477 32.6637 29.8116 32.7129 29.6839C32.762 29.5562 32.8359 29.4394 32.9302 29.3403C33.0245 29.2411 33.1374 29.1615 33.2624 29.1059C33.3875 29.0504 33.5222 29.02 33.659 29.0166C34.3474 28.9994 35.0344 29.085 35.6974 29.2708C35.9635 29.3451 36.1891 29.5222 36.3247 29.7629C36.4603 30.0037 36.4947 30.2884 36.4203 30.5545C36.3459 30.8206 36.1689 31.0463 35.9281 31.1818C35.6874 31.3174 35.4026 31.3518 35.1365 31.2774ZM38.0757 32.3441C38.0302 32.0716 37.8783 31.8283 37.6534 31.6678C37.4285 31.5073 37.1491 31.4427 36.8765 31.4883C36.604 31.5338 36.3608 31.6857 36.2003 31.9106C36.0398 32.1355 35.9752 32.4149 36.0207 32.6874C36.1124 33.2366 36.1374 33.7958 36.0957 34.3533C36.0855 34.4897 36.1022 34.6269 36.145 34.7569C36.1878 34.8869 36.2557 35.0072 36.345 35.1109C36.4342 35.2146 36.5431 35.2998 36.6652 35.3614C36.7874 35.4231 36.9205 35.4601 37.057 35.4703C37.1934 35.4806 37.3306 35.4638 37.4606 35.4211C37.5906 35.3783 37.7109 35.3103 37.8146 35.2211C37.9183 35.1318 38.0034 35.023 38.0651 34.9008C38.1268 34.7787 38.1638 34.6456 38.174 34.5091C38.2282 33.7858 38.1949 33.0574 38.0757 32.3441Z" fill="white"/>
</svg>
