<svg width="68" height="68" viewBox="0 0 68 68" fill="none" xmlns="http://www.w3.org/2000/svg">
<rect width="68" height="68" rx="13.4" fill="#0D3B42"/>
<path d="M43.862 27.4493C43.862 26.9128 43.6489 26.3983 43.2696 26.019C42.8902 25.6396 42.3757 25.4265 41.8393 25.4265H29.7025C29.166 25.4265 28.6515 25.6396 28.2721 26.019C27.8928 26.3983 27.6797 26.9128 27.6797 27.4493V37.2262C27.6797 37.7626 27.8928 38.2772 28.2721 38.6565C28.6515 39.0358 29.166 39.2489 29.7025 39.2489H41.8393C42.3757 39.2489 42.8902 39.0358 43.2696 38.6565C43.6489 38.2772 43.862 37.7626 43.862 37.2262V27.4493ZM34.7594 26.4379C34.9383 26.4379 35.1098 26.509 35.2363 26.6354C35.3627 26.7618 35.4337 26.9334 35.4337 27.1122C35.4337 27.291 35.3627 27.4625 35.2363 27.589C35.1098 27.7154 34.9383 27.7864 34.7594 27.7864C34.5806 27.7864 34.4091 27.7154 34.2827 27.589C34.1563 27.4625 34.0852 27.291 34.0852 27.1122C34.0852 26.9334 34.1563 26.7618 34.2827 26.6354C34.4091 26.509 34.5806 26.4379 34.7594 26.4379ZM32.3995 26.4379C32.5784 26.4379 32.7499 26.509 32.8763 26.6354C33.0028 26.7618 33.0738 26.9334 33.0738 27.1122C33.0738 27.291 33.0028 27.4625 32.8763 27.589C32.7499 27.7154 32.5784 27.7864 32.3995 27.7864C32.2207 27.7864 32.0492 27.7154 31.9228 27.589C31.7963 27.4625 31.7253 27.291 31.7253 27.1122C31.7253 26.9334 31.7963 26.7618 31.9228 26.6354C32.0492 26.509 32.2207 26.4379 32.3995 26.4379ZM30.0396 26.4379C30.2184 26.4379 30.3899 26.509 30.5164 26.6354C30.6428 26.7618 30.7139 26.9334 30.7139 27.1122C30.7139 27.291 30.6428 27.4625 30.5164 27.589C30.3899 27.7154 30.2184 27.7864 30.0396 27.7864C29.8608 27.7864 29.6893 27.7154 29.5628 27.589C29.4364 27.4625 29.3653 27.291 29.3653 27.1122C29.3653 26.9334 29.4364 26.7618 29.5628 26.6354C29.6893 26.509 29.8608 26.4379 30.0396 26.4379ZM42.5135 37.2262C42.5135 37.405 42.4424 37.5765 42.316 37.7029C42.1896 37.8293 42.0181 37.9004 41.8393 37.9004H29.7025C29.5237 37.9004 29.3522 37.8293 29.2257 37.7029C29.0993 37.5765 29.0282 37.405 29.0282 37.2262V28.9664C29.0282 28.9217 29.046 28.8788 29.0776 28.8472C29.1092 28.8156 29.1521 28.7978 29.1968 28.7978H42.3449C42.3896 28.7978 42.4325 28.8156 42.4641 28.8472C42.4958 28.8788 42.5135 28.9217 42.5135 28.9664V37.2262Z" fill="white"/>
<path fill-rule="evenodd" clip-rule="evenodd" d="M39.1565 35.8842C39.2822 36.0728 39.2194 36.2613 39.1565 36.4498C39.0309 36.6383 38.8424 36.7012 38.6538 36.7012H32.3069C32.1184 36.7012 31.9299 36.5755 31.8042 36.4498C31.6785 36.2613 31.6785 36.0728 31.8042 35.8842L35.0091 29.8516C35.072 29.7259 35.1348 29.6631 35.2605 29.6002C35.5746 29.4746 35.8889 29.5374 36.0774 29.8516L39.1565 35.8842ZM34.8231 35.0362C34.8231 34.6907 35.1034 34.4105 35.449 34.4105C35.7945 34.4105 36.0747 34.6907 36.0747 35.0362C36.0747 35.3818 35.7945 35.662 35.449 35.662C35.1034 35.662 34.8231 35.3818 34.8231 35.0362ZM35.9177 31.737C35.9177 31.4781 35.7079 31.2683 35.449 31.2683C35.1901 31.2683 34.9803 31.4781 34.9803 31.737V33.4138C34.9803 33.6727 35.1901 33.8825 35.449 33.8825C35.7079 33.8825 35.9177 33.6727 35.9177 33.4138V31.737Z" fill="white"/>
<path d="M24.7306 29.3434C25.11 28.9641 25.6245 28.751 26.161 28.751V32.1223H25.6553C25.6106 32.1223 25.5677 32.1401 25.5361 32.1717C25.5045 32.2033 25.4867 32.2462 25.4867 32.2909V40.5506C25.4867 40.7294 25.5578 40.9009 25.6842 41.0274C25.8107 41.1538 25.9822 41.2249 26.161 41.2249H38.2978C38.4766 41.2249 38.6481 41.1538 38.7745 41.0274C38.9009 40.9009 38.972 40.7294 38.972 40.5506H40.3205C40.3205 41.0871 40.1074 41.6016 39.7281 41.9809C39.3487 42.3603 38.8342 42.5734 38.2978 42.5734H26.161C25.6245 42.5734 25.11 42.3603 24.7306 41.9809C24.3513 41.6016 24.1382 41.0871 24.1382 40.5506V30.7738C24.1382 30.2373 24.3513 29.7228 24.7306 29.3434Z" fill="white"/>
</svg>
