<svg width="32" height="32" viewBox="0 0 32 32" fill="none" xmlns="http://www.w3.org/2000/svg">
<g clip-path="url(#clip0_333_801)">
<path fill-rule="evenodd" clip-rule="evenodd" d="M3.41883 0C1.47799 0 0 1.47796 0 3.4188C0 3.86763 0.056094 4.29783 0.216456 4.71476C0.377956 5.13464 0.631729 5.50615 0.981604 5.85603L11.4017 16.2761V31.3333C11.4017 31.6015 11.5623 31.8435 11.8094 31.9476C12.0564 32.0517 12.3418 31.9979 12.5338 31.8107L20.3971 24.144C20.5257 24.0185 20.5983 23.8464 20.5983 23.6667V16.2761L31.0184 5.85603C31.3683 5.50615 31.622 5.13464 31.7836 4.71476C31.9439 4.29783 32 3.86763 32 3.4188C32 1.47796 30.522 0 28.5812 0H3.41883Z" fill="white"/>
</g>
<defs>
<clipPath id="clip0_333_801">
<rect width="32" height="32" fill="white"/>
</clipPath>
</defs>
</svg>
