<svg width="38" height="38" viewBox="0 0 38 38" fill="none" xmlns="http://www.w3.org/2000/svg">
<path d="M2.58106 29.6875C3.16869 29.6934 3.73591 29.4722 4.16439 29.07L14.2502 19.6333C14.3921 19.495 14.5825 19.4176 14.7806 19.4176C14.9788 19.4176 15.1691 19.495 15.3111 19.6333L18.6836 23.0216C19.7028 23.9953 21.0581 24.5386 22.4677 24.5386C23.8773 24.5386 25.2326 23.9953 26.2519 23.0216L31.8727 17.4166C31.908 17.3812 31.95 17.3531 31.9962 17.3339C32.0424 17.3148 32.0919 17.3049 32.1419 17.3049C32.1919 17.3049 32.2414 17.3148 32.2876 17.3339C32.3338 17.3531 32.3758 17.3812 32.4111 17.4166L35.1027 20.0925C35.2426 20.2357 35.4103 20.3489 35.5954 20.4251C35.7805 20.5013 35.9792 20.539 36.1794 20.5358C36.3799 20.5363 36.5787 20.4987 36.7652 20.425C37.0382 20.3024 37.2708 20.1049 37.4361 19.8555C37.6015 19.6061 37.6927 19.315 37.6994 19.0158V9.83248C37.6994 9.41255 37.5326 9.00983 37.2356 8.71289C36.9387 8.41596 36.536 8.24915 36.1161 8.24915H27.0119C26.72 8.2718 26.4401 8.37494 26.2033 8.54711C25.9665 8.71928 25.782 8.95374 25.6705 9.22443C25.5589 9.49513 25.5246 9.79145 25.5713 10.0805C25.6181 10.3695 25.744 10.6399 25.9352 10.8616L28.6269 13.5375C28.6629 13.5723 28.6913 13.6142 28.7104 13.6605C28.7294 13.7068 28.7388 13.7566 28.7377 13.8066C28.7409 13.857 28.7325 13.9074 28.7133 13.954C28.6941 14.0006 28.6646 14.0423 28.6269 14.0758L22.9744 19.7441C22.828 19.8799 22.6357 19.9554 22.4361 19.9554C22.2364 19.9554 22.0441 19.8799 21.8977 19.7441L18.5094 16.3558C17.5262 15.3754 16.1978 14.8197 14.8094 14.8078C13.421 14.796 12.0833 15.329 11.0836 16.2925L1.01356 25.7925C0.590376 26.2051 0.343944 26.7659 0.326222 27.3566C0.308499 27.9474 0.52087 28.5219 0.918556 28.9591C1.12921 29.1902 1.38606 29.3744 1.67245 29.4999C1.95884 29.6254 2.26839 29.6893 2.58106 29.6875Z" fill="white"/>
</svg>
